<?xml version="1.0" encoding="UTF-8" standalone="no"?>
<svg
   xmlns:dc="http://purl.org/dc/elements/1.1/"
   xmlns:cc="http://creativecommons.org/ns#"
   xmlns:rdf="http://www.w3.org/1999/02/22-rdf-syntax-ns#"
   xmlns:svg="http://www.w3.org/2000/svg"
   xmlns="http://www.w3.org/2000/svg"
   viewBox="0 0 225 225"
   height="225"
   width="225"
   id="svg2"
   version="1.1">
  <metadata
     id="metadata8">
    <rdf:RDF>
      <cc:Work
         rdf:about="">
        <dc:format>image/svg+xml</dc:format>
        <dc:type
           rdf:resource="http://purl.org/dc/dcmitype/StillImage" />
        <dc:title></dc:title>
      </cc:Work>
    </rdf:RDF>
  </metadata>
  <defs
     id="defs6" />
  <path
     id="path3715"
     d="M 81.477649,224.24669 C 70.413471,222.68139 59.614027,219.67137 49.766852,215.40825 39.239194,210.85056 22.812657,196.70717 16.809975,187.0321 10.910696,177.52373 5.1214917,161.81321 2.4186069,147.97743 -0.7347487,131.8358 -0.8197735,102.10679 2.2525535,89.922332 13.991246,43.36811 41.837986,14.126876 83.744966,4.3489673 97.511942,1.1367972 122.90074,0.01418642 137.82912,1.9575432 c 49.52326,6.4468579 79.08689,36.1304868 85.20282,85.5487018 3.71928,30.052515 -3.44377,57.843195 -18.64375,72.332695 -9.66492,9.21313 -19.69207,13.08999 -35.56001,13.7487 -16.53362,0.68635 -23.6306,-1.45789 -31.7403,-9.58983 l -6.02979,-6.04631 -7.43149,6.12329 c -9.15859,7.54638 -18.24899,10.33575 -30.738167,9.43193 -14.453596,-1.04598 -25.409018,-8.88932 -31.44629,-22.51344 -4.319777,-9.74829 -4.285119,-34.96177 0.06676,-48.58444 6.949469,-21.753826 20.650274,-38.440158 37.345778,-45.483768 16.932379,-7.143548 39.669539,-5.39958 55.673689,4.270244 6.1411,3.710495 6.48009,4.192226 6.13725,8.721598 -0.19959,2.636797 -1.8378,19.77612 -3.64048,38.087386 -1.80266,18.31127 -2.91525,34.9265 -2.4724,36.92273 2.22548,10.03197 13.87789,12.69507 25.22864,5.76592 13.3686,-8.16095 19.31642,-24.84592 19.37764,-54.358562 C 199.21258,70.496002 193.53188,55.666476 178.4509,42.276141 163.87514,29.334352 145.40853,23.432319 119.05553,23.293036 99.835532,23.191452 90.883844,24.878412 75.750103,31.453991 63.775245,36.657044 51.389263,46.137072 44.344295,55.491468 38.89879,62.722102 32.377578,75.468042 28.849304,85.777033 c -3.345298,9.774329 -3.613392,12.116552 -3.614738,31.579987 -0.0012,17.75993 0.461196,22.6931 2.979427,31.78574 8.016382,28.94494 24.460096,45.29554 52.199772,51.90416 12.855802,3.06274 47.629855,2.74246 61.293845,-0.56451 5.49645,-1.33028 10.36666,-2.06274 10.82267,-1.62769 1.98991,1.8984 5.46128,18.42499 4.12346,19.63109 -0.75849,0.68382 -5.48097,2.32624 -10.49442,3.64984 -7.27501,1.92068 -13.95776,2.48522 -33.09992,2.79621 -13.1915,0.21432 -27.40329,-0.0941 -31.581764,-0.68517 z m 32.483341,-74.18856 c 1.96159,-1.16632 4.72496,-3.46024 6.14085,-5.09758 6.67898,-7.72369 7.43144,-10.62113 10.44104,-40.20518 1.61247,-15.850513 2.69292,-29.167554 2.40096,-29.593413 -1.12511,-1.641283 -12.66442,-2.319051 -17.88899,-1.05072 -6.5255,1.584145 -15.197646,8.311347 -18.705439,14.510271 -4.192181,7.408352 -7.959491,21.488672 -8.821757,32.971172 -1.470033,19.57623 4.772432,30.61181 17.306026,30.59398 3.06532,-0.004 7.16129,-0.95957 9.12731,-2.12853 z"
     style="fill:#ffffff;stroke-width:1.26518559" />
</svg>
